<svg xmlns="http://www.w3.org/2000/svg" fill="none" viewBox="0 0 256 256">
  <rect width="256" height="256" fill="#09090B" rx="128"/>
  <path fill="white" d="M67.704 166.739c-4.037 0-7.755-1.059-11.153-3.177-3.373-2.117-6.081-5.33-8.125-9.639-2.019-4.308-3.028-9.737-3.028-16.287 0-6.844 1.058-12.409 3.176-16.693 2.142-4.284 4.9-7.423 8.273-9.417 3.397-1.995 6.967-2.992 10.71-2.992 2.807 0 5.269.493 7.386 1.477 2.118.961 3.89 2.253 5.318 3.878 1.428 1.601 2.512 3.361 3.25 5.281h.296V90.364h20.386V166H83.954v-9.307h-.443a16.25 16.25 0 0 1-3.397 5.171c-1.453 1.502-3.226 2.696-5.319 3.582-2.068.862-4.431 1.293-7.09 1.293Zm7.535-15.659c1.87 0 3.471-.542 4.8-1.625 1.355-1.108 2.389-2.66 3.103-4.654.739-2.019 1.108-4.407 1.108-7.165 0-2.806-.37-5.207-1.108-7.201-.714-2.019-1.748-3.558-3.102-4.617-1.33-1.083-2.93-1.625-4.801-1.625-1.872 0-3.472.542-4.802 1.625-1.304 1.059-2.314 2.598-3.028 4.617-.69 1.994-1.034 4.395-1.034 7.201 0 2.807.345 5.22 1.034 7.239.714 1.994 1.724 3.533 3.028 4.616 1.33 1.059 2.93 1.589 4.802 1.589Zm76.042-64.262-24.375 90.557h-17.284l24.375-90.557h17.284Zm57.632 40.921h-18.761c-.098-1.158-.505-2.155-1.219-2.992-.714-.837-1.637-1.477-2.77-1.92-1.108-.468-2.339-.702-3.693-.702-1.748 0-3.25.32-4.506.96-1.255.64-1.871 1.551-1.846 2.733-.025.837.332 1.613 1.071 2.327.763.714 2.228 1.268 4.395 1.662l11.523 2.068c5.81 1.059 10.131 2.844 12.963 5.355 2.856 2.487 4.296 5.823 4.321 10.009-.025 4.038-1.231 7.546-3.62 10.525-2.363 2.955-5.601 5.245-9.713 6.87-4.087 1.6-8.753 2.4-13.997 2.4-8.667 0-15.45-1.773-20.349-5.318-4.875-3.546-7.596-8.224-8.162-14.034h20.238c.271 1.797 1.158 3.188 2.659 4.173 1.527.96 3.447 1.44 5.762 1.44 1.871 0 3.41-.32 4.616-.96 1.231-.64 1.859-1.551 1.884-2.733-.025-1.083-.566-1.945-1.625-2.585-1.034-.64-2.659-1.157-4.875-1.551l-10.046-1.773c-5.786-1.009-10.119-2.93-13-5.761-2.88-2.832-4.308-6.476-4.284-10.932-.024-3.939 1.01-7.276 3.103-10.009 2.117-2.757 5.133-4.85 9.048-6.278 3.939-1.453 8.605-2.179 13.997-2.179 8.199 0 14.662 1.699 19.389 5.097 4.752 3.397 7.251 8.1 7.497 14.108Z"/>
</svg>
